<?xml version="1.0" standalone="no"?>
<!DOCTYPE svg PUBLIC "-//W3C//DTD SVG 20010904//EN"
 "http://www.w3.org/TR/2001/REC-SVG-20010904/DTD/svg10.dtd">
<svg version="1.0" xmlns="http://www.w3.org/2000/svg"
 width="16.000000pt" height="16.000000pt" viewBox="0 0 16.000000 16.000000"
 preserveAspectRatio="xMidYMid meet">
<metadata>
Created by potrace 1.11, written by Peter Selinger 2001-2013
</metadata>
<g transform="translate(0.000000,16.000000) scale(0.001307,-0.001307)"
fill="#000000" stroke="none">
<path d="M7625 12229 c-108 -14 -272 -57 -356 -93 -42 -18 -145 -77 -230 -131
-231 -148 -228 -146 -445 -156 -217 -10 -276 -25 -312 -79 -22 -33 -23 -41
-21 -200 3 -217 -9 -244 -117 -255 l-64 -7 -26 -49 c-20 -36 -36 -51 -60 -59
-42 -14 -54 -7 -54 30 0 16 -10 41 -23 56 -22 25 -25 26 -61 14 -21 -7 -58
-32 -83 -56 l-46 -43 6 -64 c3 -35 22 -114 42 -175 45 -141 65 -252 65 -368 0
-130 -26 -221 -109 -378 -82 -156 -103 -220 -135 -426 -38 -233 -62 -291 -198
-472 -205 -270 -392 -444 -520 -482 -13 -4 -18 -15 -17 -38 1 -56 12 -72 50
-73 19 0 62 -2 97 -3 73 -2 71 5 46 -158 -19 -122 -33 -147 -118 -215 -170
-138 -323 -166 -766 -140 -121 7 -130 6 -299 -31 -148 -32 -180 -37 -209 -27
-112 37 -457 402 -645 684 -56 84 -116 161 -151 192 -73 67 -186 122 -356 174
-162 49 -265 101 -351 175 -79 69 -107 83 -170 91 -47 6 -52 4 -108 -40 -38
-31 -75 -50 -107 -57 -27 -6 -56 -13 -65 -16 -23 -7 -39 -48 -39 -102 0 -26
-18 -114 -39 -197 -21 -82 -57 -222 -80 -310 -53 -206 -70 -358 -53 -491 16
-124 46 -213 137 -404 40 -85 77 -166 80 -179 31 -105 20 -243 -25 -336 -16
-33 -66 -102 -112 -153 -127 -142 -186 -222 -203 -272 -25 -72 -29 -182 -11
-315 41 -309 13 -396 -219 -685 -139 -173 -169 -216 -214 -306 -51 -104 -74
-179 -117 -397 -44 -223 -83 -335 -169 -482 -78 -134 -105 -205 -105 -275 0
-48 -1 -50 -28 -50 -45 0 -52 -14 -36 -73 65 -245 -9 -493 -230 -772 -86 -109
-126 -180 -126 -223 0 -18 25 -70 66 -138 118 -194 155 -294 184 -507 25 -174
52 -236 146 -331 37 -37 77 -71 90 -76 12 -5 54 -6 93 -3 118 10 146 -27 115
-149 -19 -74 -21 -58 23 -253 8 -38 16 -109 17 -157 1 -83 -1 -89 -26 -114
-24 -25 -35 -28 -98 -28 -68 -1 -73 0 -100 31 -39 44 -60 120 -60 220 l0 84
-29 -15 c-42 -22 -76 -68 -101 -133 -26 -71 -38 -212 -42 -516 l-3 -218 95
-32 c86 -29 97 -36 127 -77 74 -104 81 -109 266 -201 206 -102 302 -135 722
-249 454 -122 530 -149 762 -265 312 -158 473 -203 681 -192 169 8 317 66 457
177 128 102 167 163 216 342 54 195 94 257 218 340 129 87 213 171 252 253 29
62 24 98 -31 216 -57 122 -77 190 -86 292 -11 129 37 357 110 527 25 58 38 77
59 84 45 16 74 -20 191 -234 68 -123 108 -170 147 -170 44 0 51 19 34 88 -27
103 0 159 95 201 130 57 395 54 765 -10 186 -32 262 -20 367 59 71 54 102 61
133 32 14 -13 30 -39 36 -59 6 -20 20 -53 31 -74 27 -53 174 -235 284 -348
100 -104 127 -150 204 -343 49 -123 109 -219 201 -321 68 -76 129 -166 177
-261 18 -35 40 -65 54 -71 18 -8 71 -8 189 -1 97 6 187 7 219 2 50 -8 57 -13
72 -45 9 -19 22 -40 30 -46 7 -6 74 -31 148 -56 l135 -46 21 26 c24 28 60 131
134 376 51 172 90 264 115 273 22 9 351 -158 428 -216 37 -28 67 -57 67 -63 0
-7 16 -58 36 -113 30 -86 45 -112 95 -168 32 -37 59 -71 59 -76 0 -5 -20 -24
-45 -42 -44 -32 -45 -35 -40 -73 8 -60 52 -141 93 -173 89 -70 181 -95 352
-95 247 -1 544 72 796 194 128 62 166 90 301 219 l110 105 -13 30 c-7 17 -13
66 -13 110 l0 80 38 24 c82 50 120 147 128 326 10 231 -69 631 -162 815 -56
111 -51 156 22 178 97 29 127 125 82 264 l-22 71 22 19 c33 26 110 45 236 58
61 6 130 16 154 21 118 26 338 138 501 255 151 108 206 127 413 139 134 8 217
21 297 47 75 24 160 65 160 76 0 5 -7 31 -15 59 -13 42 -27 62 -88 116 -43 39
-82 83 -96 112 -13 26 -45 134 -71 239 -57 231 -59 234 -110 290 -32 35 -63
54 -133 83 -114 46 -181 109 -246 232 -65 121 -106 162 -226 227 -139 76 -167
106 -173 183 -7 100 32 182 105 220 50 26 101 7 221 -78 51 -37 62 -50 62 -73
0 -22 6 -29 28 -34 15 -4 39 -18 54 -31 21 -21 32 -24 60 -18 18 4 41 14 50
22 16 14 16 18 -1 62 -27 72 -66 127 -159 224 -142 147 -288 247 -492 338
-235 104 -472 168 -747 199 -298 34 -334 50 -524 235 -167 164 -247 208 -444
245 -33 6 -107 26 -165 43 -112 34 -106 29 -222 160 -24 26 -88 76 -143 110
-120 75 -145 113 -153 231 -6 92 7 165 57 332 65 215 69 285 35 655 l-6 67
-41 18 c-23 10 -45 23 -49 29 -16 21 -7 73 17 106 51 72 58 92 70 224 17 181
34 209 180 285 96 51 114 65 131 107 25 59 22 63 -59 63 -86 0 -132 20 -162
71 -28 47 -26 150 4 249 52 170 205 437 297 519 47 42 95 58 138 47 60 -15
122 -118 156 -258 22 -91 45 -289 37 -319 -6 -24 22 -25 63 -4 99 51 260 391
315 665 22 108 23 294 1 416 -9 50 -41 182 -71 292 -74 269 -73 291 15 483 57
122 74 187 61 223 -24 61 -104 101 -265 132 -115 22 -140 43 -160 134 -24 106
-56 331 -56 386 0 37 -4 54 -15 58 -20 7 -95 -8 -167 -34 -32 -11 -82 -20
-112 -20 -49 0 -59 4 -107 43 -28 23 -74 63 -100 90 -53 53 -89 60 -157 31
-20 -8 -78 -18 -129 -21 l-92 -6 -38 39 c-21 21 -44 37 -50 36 -20 -4 -16 49
6 84 11 19 40 41 75 57 31 15 59 33 62 41 16 41 -98 166 -195 216 -101 50
-198 71 -351 75 -74 2 -166 0 -205 -6z"/>
</g>
</svg>
